<svg width="924" height="342" viewBox="0 0 924 342" fill="none" xmlns="http://www.w3.org/2000/svg">
<path fill-rule="evenodd" clip-rule="evenodd" d="M157.978 53.8999C129.81 57.0919 108.43 73.6159 102.335 96.9039C99.985 105.881 100.225 120.41 102.862 128.791C109.052 148.472 124.582 160.048 158.478 170.248C187.905 179.103 193.978 183.558 193.978 196.291C193.978 208.311 186.684 215.499 172.034 217.919C155.226 220.695 135.425 213.893 120.882 200.349L116.649 196.406L113.564 199.934C111.867 201.874 106.316 208.224 101.228 214.046C96.14 219.867 91.988 225.003 92 225.46C92.034 226.717 101.448 234.805 107.814 239.046C124.696 250.294 152.327 256.33 175.509 253.834C213.244 249.771 234.97 229.513 236.686 196.791C237.1 188.898 236.835 184.729 235.617 179.998C230.021 158.255 215.558 145.98 182.978 135.321C152.68 125.409 143.991 119.546 143.982 109.009C143.971 97.1569 151.812 90.9639 167.978 90.0519C181.9 89.2679 194.182 93.4419 206.022 102.984L212.059 107.848L214.395 105.07C227.351 89.6619 234.978 80.2489 234.978 79.6639C234.978 79.2759 232.242 76.4829 228.898 73.4569C218.013 63.6069 202.801 57.1579 183.85 54.3599C172.338 52.6609 169.382 52.6079 157.978 53.8999Z" fill="#F16F66"/>
<path fill-rule="evenodd" clip-rule="evenodd" d="M627.978 88.7909V106.791H613.978H599.978V123.291V139.791H613.907H627.835L628.204 179.541C628.555 217.359 628.68 219.614 630.785 225.943C634.966 238.511 642.096 246.291 653.696 250.941C658.888 253.023 661.059 253.256 674.978 253.231C688.716 253.205 691.132 252.943 696.228 250.925L701.978 248.647V231.719C701.978 222.409 701.822 214.791 701.632 214.791C701.441 214.791 699.754 215.578 697.882 216.54C693.214 218.938 680.711 218.918 676.245 216.504C670.074 213.169 669.978 212.526 669.978 174.341V139.791H686.978H703.978V123.291V106.791H686.478H668.978V88.7909V70.7909H648.478H627.978V88.7909Z" fill="#F16F66"/>
<path fill-rule="evenodd" clip-rule="evenodd" d="M768.978 102.943C753.908 104.098 741.114 109.725 732.253 119.093C726.321 125.366 723.536 130.455 721.334 139.042C719.381 146.661 719.963 156.097 722.855 163.708C728.749 179.222 739.923 186.498 769.024 193.771C775.874 195.483 783.401 197.603 785.752 198.482C791.2 200.52 795.978 205.844 795.978 209.875C795.978 218.446 788.818 223.074 775.496 223.113C762.65 223.151 751.072 218.903 739.691 209.976C734.75 206.101 733.712 205.646 732.597 206.864C731.879 207.649 727.331 213.378 722.49 219.595L713.689 230.898L717.084 234.418C726.18 243.849 744.956 251.878 762.555 253.862C793.941 257.401 820.207 246.54 829.758 226.072C832.216 220.806 832.457 219.22 832.467 208.27C832.478 196.691 832.357 196.004 829.191 189.573C825.386 181.843 819.378 176.047 810.531 171.572C802.841 167.682 799.455 166.509 782.056 161.715C774.123 159.529 766.125 156.809 764.281 155.669C755.516 150.252 756.2 139.792 765.591 135.638C776.722 130.714 797.63 134.895 808.776 144.274L811.841 146.854L820.903 135.072C825.888 128.593 829.968 122.783 829.972 122.161C829.975 121.54 828.065 119.491 825.728 117.607C811.752 106.343 791.815 101.192 768.978 102.943Z" fill="#F16F66"/>
<path d="M331.979 102.842C346.393 101.054 362.796 103.975 375.433 110.579C384.097 115.108 397.196 127.729 402.117 136.291C410.864 151.509 413.512 163.023 412.685 182.254C411.83 202.135 406.414 217.491 395.622 230.624C382.872 246.142 367.271 253.654 345.979 254.527C327.203 255.297 313.908 250.852 303.317 240.261L297.979 234.921V307.791H255.979V106.791H274.778C288.067 106.791 293.93 107.143 294.778 107.991C295.452 108.666 295.978 111.895 295.979 115.358V121.527L299.729 117.988C308.484 109.727 319.972 104.331 331.979 102.842ZM350.469 140.684C344.873 138.209 331.038 137.223 324.596 138.84C318.014 140.492 309.064 145.901 304.486 150.993C298.057 158.144 296.469 163.687 296.522 178.791C296.562 190.267 296.792 191.782 299.323 197.291C304.516 208.593 314.953 216.429 327.954 218.787C345.483 221.965 362.973 212.741 369.039 197.119C372.402 188.457 372.906 173.2 370.131 164.088C366.414 151.884 360.87 145.285 350.469 140.684Z" fill="#F16F66"/>
<path d="M493.342 101.284C501.645 99.4794 519.884 99.488 528.449 101.302C541.668 104.103 557.156 112.981 567.031 123.421C577.004 133.965 582.341 143.264 586.578 157.484C590.041 169.106 590.273 186.2 587.129 198.015C580.872 221.526 563.237 248.932 535.203 278.711C521.446 293.325 516.601 296.791 509.931 296.791C505.401 296.791 504.987 296.518 494.642 286.715C482.775 275.469 472.758 263.898 460.084 246.791C439.64 219.196 431.698 199.976 431.778 178.291C431.841 161.07 436.101 147.673 446.12 133.179C457.179 117.182 474.72 105.334 493.342 101.284ZM525.18 141.748C515.002 137.91 500.26 138.429 491.675 142.929C469.239 154.688 466.355 193.929 486.66 211.173C492.447 216.086 501.167 218.989 510.389 219.074C519.996 219.162 526.435 217.24 533.23 212.255C542.404 205.524 547.773 194.951 548.698 181.791C549.97 163.703 540.46 147.511 525.18 141.748Z" fill="#F2CB29"/>
</svg>
