<svg width="22" height="22" viewBox="0 0 22 22" fill="none" xmlns="http://www.w3.org/2000/svg">
<rect width="22" height="22" fill="#1E1E1E"/>
<circle cx="11" cy="11" r="10.4" stroke="black" stroke-width="1.2"/>
<path d="M11 0.599609C12.0007 0.599609 13.1028 1.51964 13.9893 3.46973C14.8511 5.36588 15.4004 8.02792 15.4004 11C15.4004 13.9721 14.8511 16.6341 13.9893 18.5303C13.1028 20.4804 12.0007 21.4004 11 21.4004C9.99931 21.4004 8.89723 20.4804 8.01074 18.5303C7.14885 16.6341 6.59961 13.9721 6.59961 11C6.59961 8.02792 7.14885 5.36588 8.01074 3.46973C8.89723 1.51964 9.99931 0.599609 11 0.599609Z" stroke="black" stroke-width="1.2"/>
<line x1="1" y1="7.4" x2="21" y2="7.4" stroke="black" stroke-width="1.2"/>
<line x1="1" y1="14.4" x2="21" y2="14.4" stroke="black" stroke-width="1.2"/>
</svg>
