<svg width="1024" height="1024" viewBox="0 0 1024 1024" fill="none" xmlns="http://www.w3.org/2000/svg">
<path fill-rule="evenodd" clip-rule="evenodd" d="M192.978 374.9C164.81 378.092 143.43 394.616 137.335 417.904C134.985 426.881 135.225 441.41 137.862 449.791C144.052 469.472 159.582 481.048 193.478 491.248C222.905 500.103 228.978 504.558 228.978 517.291C228.978 529.311 221.684 536.499 207.034 538.919C190.226 541.695 170.425 534.893 155.882 521.349L151.649 517.406L148.564 520.934C146.867 522.874 141.316 529.224 136.228 535.046C131.14 540.867 126.988 546.003 127 546.46C127.034 547.717 136.448 555.805 142.814 560.046C159.696 571.294 187.327 577.33 210.509 574.834C248.244 570.771 269.97 550.513 271.686 517.791C272.1 509.898 271.835 505.729 270.617 500.998C265.021 479.255 250.558 466.98 217.978 456.321C187.68 446.409 178.991 440.546 178.982 430.009C178.971 418.157 186.812 411.964 202.978 411.052C216.9 410.268 229.182 414.442 241.022 423.984L247.059 428.848L249.395 426.07C262.351 410.662 269.978 401.249 269.978 400.664C269.978 400.276 267.242 397.483 263.898 394.457C253.013 384.607 237.801 378.158 218.85 375.36C207.338 373.661 204.382 373.608 192.978 374.9Z" fill="#F16F66"/>
<path fill-rule="evenodd" clip-rule="evenodd" d="M662.978 409.791V427.791H648.978H634.978V444.291V460.791H648.907H662.835L663.204 500.541C663.555 538.359 663.68 540.614 665.785 546.943C669.966 559.511 677.096 567.291 688.696 571.941C693.888 574.023 696.059 574.256 709.978 574.231C723.716 574.205 726.132 573.943 731.228 571.925L736.978 569.647V552.719C736.978 543.409 736.822 535.791 736.632 535.791C736.441 535.791 734.754 536.578 732.882 537.54C728.214 539.938 715.711 539.918 711.245 537.504C705.074 534.169 704.978 533.526 704.978 495.341V460.791H721.978H738.978V444.291V427.791H721.478H703.978V409.791V391.791H683.478H662.978V409.791Z" fill="#F16F66"/>
<path fill-rule="evenodd" clip-rule="evenodd" d="M803.978 423.943C788.908 425.098 776.114 430.725 767.253 440.093C761.321 446.366 758.536 451.455 756.334 460.042C754.381 467.661 754.963 477.097 757.855 484.708C763.749 500.222 774.923 507.498 804.024 514.771C810.874 516.483 818.401 518.603 820.752 519.482C826.2 521.52 830.978 526.844 830.978 530.875C830.978 539.446 823.818 544.074 810.496 544.113C797.65 544.151 786.072 539.903 774.691 530.976C769.75 527.101 768.712 526.646 767.597 527.864C766.879 528.649 762.331 534.378 757.49 540.595L748.689 551.898L752.084 555.418C761.18 564.849 779.956 572.878 797.555 574.862C828.941 578.401 855.207 567.54 864.758 547.072C867.216 541.806 867.457 540.22 867.467 529.27C867.478 517.691 867.357 517.004 864.191 510.573C860.386 502.843 854.378 497.047 845.531 492.572C837.841 488.682 834.455 487.509 817.056 482.715C809.123 480.529 801.125 477.809 799.281 476.669C790.516 471.252 791.2 460.792 800.591 456.638C811.722 451.714 832.63 455.895 843.776 465.274L846.841 467.854L855.903 456.072C860.888 449.593 864.968 443.783 864.972 443.161C864.975 442.54 863.065 440.491 860.728 438.607C846.752 427.343 826.815 422.192 803.978 423.943Z" fill="#F16F66"/>
<path d="M366.979 423.842C381.393 422.054 397.796 424.975 410.433 431.579C419.097 436.108 432.196 448.729 437.117 457.291C445.864 472.509 448.512 484.023 447.685 503.254C446.83 523.135 441.414 538.491 430.622 551.624C417.872 567.142 402.271 574.654 380.979 575.527C362.203 576.297 348.908 571.852 338.317 561.261L332.979 555.921V628.791H290.978V427.791H309.778C323.067 427.791 328.93 428.143 329.778 428.991C330.452 429.664 330.978 432.895 330.979 436.359V442.527L334.729 438.988C343.483 430.727 354.972 425.331 366.979 423.842ZM385.469 461.684C379.873 459.209 366.038 458.223 359.596 459.84C353.014 461.492 344.064 466.901 339.486 471.992C333.057 479.143 331.469 484.687 331.522 499.791C331.562 511.267 331.792 512.782 334.323 518.291C339.516 529.593 349.953 537.428 362.954 539.786C380.483 542.964 397.973 533.74 404.039 518.118C407.402 509.456 407.906 494.2 405.131 485.088C401.414 472.884 395.87 466.285 385.469 461.684Z" fill="#F16F66"/>
<path d="M528.342 422.283C536.645 420.479 554.884 420.488 563.449 422.302C576.668 425.103 592.156 433.981 602.031 444.421C612.004 454.965 617.341 464.264 621.578 478.484C625.041 490.106 625.273 507.2 622.129 519.015C615.872 542.526 598.237 569.932 570.203 599.711C556.446 614.325 551.601 617.791 544.931 617.791C540.401 617.791 539.987 617.518 529.642 607.715C517.775 596.469 507.759 584.898 495.085 567.791C474.64 540.196 466.698 520.976 466.778 499.291C466.841 482.07 471.101 468.673 481.12 454.179C492.179 438.182 509.72 426.333 528.342 422.283ZM560.18 462.748C550.002 458.91 535.26 459.429 526.675 463.929C504.239 475.688 501.355 514.929 521.66 532.173C527.447 537.086 536.167 539.989 545.389 540.074C554.996 540.162 561.435 538.24 568.23 533.255C577.404 526.524 582.773 515.951 583.698 502.791C584.97 484.703 575.46 468.511 560.18 462.748Z" fill="#F2CB29"/>
</svg>
